<svg width="119" height="32" viewBox="0 0 119 32" fill="none" xmlns="http://www.w3.org/2000/svg">
<path d="M117.153 20.3216V18.4968C117.153 17.7322 116.985 16.9785 116.661 16.2869L113.029 8.53873C112.204 6.78143 110.44 5.65917 108.498 5.65917H101.338C100.272 5.65917 99.3595 6.42011 99.1679 7.46938L96.8431 20.2066C96.7792 20.5533 96.4782 20.8052 96.126 20.8052C95.6734 20.8052 95.3303 20.3982 95.407 19.953L98.3869 2.52048C98.5621 1.48946 97.7683 0.547852 96.7227 0.547852H56.4782C55.1168 0.547852 54.0146 1.65004 54.0146 3.01136C54.0146 4.37267 55.1168 5.47486 56.4782 5.47486H66.1205C67.365 5.47486 68.3084 6.5953 68.0986 7.81975C67.9344 8.78325 67.0986 9.48946 66.1205 9.48946H59.5803C58.219 9.48946 57.1168 10.5916 57.1168 11.953C57.1168 13.3143 58.219 14.4165 59.5803 14.4165H64.5931C65.8376 14.4165 66.7811 15.5369 66.5712 16.7614L66.011 20.0351C65.9398 20.4457 65.7117 20.8125 65.376 21.0606C65.0639 21.2887 64.8449 21.6537 64.7957 22.0789L64.6077 23.7431C64.511 24.6062 65.1442 25.3654 65.9636 25.3654H68.5584C68.9836 25.3654 69.3376 25.0442 69.3851 24.6227C69.7373 21.4457 72.3212 18.9785 75.4581 18.9785C78.5949 18.9785 81.1771 21.4457 81.5311 24.6227C81.5785 25.0442 81.9325 25.3654 82.3577 25.3654H100.314C100.739 25.3654 101.093 25.0442 101.141 24.6227C101.493 21.4457 104.077 18.9785 107.214 18.9785C110.35 18.9785 112.933 21.4457 113.287 24.6227C113.334 25.0442 113.688 25.3654 114.113 25.3654H116.518C117.21 25.3654 117.792 24.8179 117.874 24.088L118.062 22.4238C118.122 21.8964 117.907 21.4092 117.546 21.1081C117.308 20.911 117.159 20.6281 117.159 20.3197L117.153 20.3216ZM111.896 14.9402H102.058C101.746 14.9402 101.511 14.6573 101.568 14.3508L102.48 9.3526C102.524 9.11537 102.73 8.94201 102.971 8.94201H108.347C109.675 8.94201 110.854 9.78873 111.279 11.0479L112.369 14.2814C112.478 14.6044 112.237 14.9402 111.896 14.9402Z" fill="#1975FF"/>
<path d="M79.6649 26.5495C80.5216 23.9742 79.2974 21.2483 76.9306 20.4609C74.5638 19.6736 71.9506 21.123 71.0939 23.6983C70.2372 26.2736 71.4614 28.9996 73.8282 29.7869C76.1951 30.5743 78.8083 29.1248 79.6649 26.5495Z" fill="#1975FF"/>
<path d="M111.396 26.5495C112.253 23.9742 111.029 21.2483 108.662 20.4609C106.295 19.6736 103.682 21.123 102.825 23.6983C101.969 26.2736 103.193 28.9996 105.56 29.7869C107.927 30.5743 110.54 29.1248 111.396 26.5495Z" fill="#1975FF"/>
<path d="M49.5437 0.547852H45.1642C43.8036 0.547852 42.7007 1.6508 42.7007 3.01135C42.7007 4.37191 43.8036 5.47486 45.1642 5.47486H49.5437C50.9043 5.47486 52.0073 4.37191 52.0073 3.01135C52.0073 1.6508 50.9043 0.547852 49.5437 0.547852Z" fill="#1975FF"/>
<path d="M52.646 9.48926H51.1862C49.8256 9.48926 48.7227 10.5922 48.7227 11.9528C48.7227 13.3133 49.8256 14.4163 51.1862 14.4163H52.646C54.0066 14.4163 55.1095 13.3133 55.1095 11.9528C55.1095 10.5922 54.0066 9.48926 52.646 9.48926Z" fill="#1975FF"/>
<path d="M11.2781 2.70902V12H0.980118V2.70902H2.92693V10.4426H5.20939V2.70902H7.04879V10.4426H9.34469V2.70902H11.2781ZM20.248 12H18.3012V8.2675C18.3012 6.99648 18.3951 5.80601 18.5831 4.69611L15.6562 12H13.2395V2.70902H15.1863V6.4818C15.1863 7.23367 15.1594 7.86023 15.1057 8.36148C15.061 8.85378 14.9938 9.39978 14.9043 9.99949L17.8849 2.70902H20.248V12ZM32.2238 7.3008C32.2238 8.63448 31.8389 9.64593 31.0691 10.3351C30.2994 11.0154 29.2297 11.3779 27.8602 11.4227V12.5102H25.9403V11.4092C24.5529 11.3466 23.4788 10.9796 22.718 10.3083C21.9572 9.62803 21.5768 8.63896 21.5768 7.34108C21.5768 6.00741 21.9616 5.00044 22.7314 4.32017C23.5012 3.63096 24.5708 3.26397 25.9403 3.21922V2.21225H27.8602V3.23264C29.2476 3.2953 30.3217 3.66676 31.0826 4.34702C31.8434 5.01834 32.2238 6.00293 32.2238 7.3008ZM27.7797 10.1606C28.63 10.1069 29.2476 9.8518 29.6325 9.3953C30.0174 8.93881 30.2098 8.24064 30.2098 7.3008C30.2098 6.37887 30.0129 5.68965 29.6191 5.23316C29.2253 4.77667 28.6121 4.52604 27.7797 4.48129V10.1606ZM23.5907 7.34108C23.5907 8.26302 23.7876 8.95224 24.1814 9.40873C24.5753 9.86522 25.1884 10.1158 26.0208 10.1606V4.48129C25.1705 4.53499 24.5529 4.79009 24.168 5.24659C23.7831 5.70308 23.5907 6.40124 23.5907 7.34108ZM39.24 2.70902L39.0251 4.25304H36.6755V12H34.7019V4.25304H32.2314V2.70902H39.24Z" fill="#1975FF"/>
<path d="M3.41027 18.0371C4.86031 18.0371 6.01945 18.3683 6.88768 19.0307C7.76486 19.6841 8.20345 20.888 8.20345 22.6424C8.20345 24.3609 7.77381 25.5738 6.91453 26.2809C6.0642 26.979 4.9722 27.3281 3.63852 27.3281H0.980118V18.0371H3.41027ZM2.95378 19.4872V25.8781H3.75936C4.52018 25.8781 5.10646 25.6454 5.5182 25.1799C5.93889 24.7055 6.14923 23.8597 6.14923 22.6424C6.14923 21.801 6.04182 21.1476 5.827 20.6821C5.62113 20.2167 5.34366 19.9034 4.99457 19.7423C4.64549 19.5722 4.22032 19.4872 3.71908 19.4872H2.95378ZM15.2575 18.0371L15.0427 19.4738H11.6861V21.8905H14.613V23.3137H11.6861V25.8781H15.2843V27.3281H9.71244V18.0371H15.2575ZM18.7795 18.0371V25.7438H22.4583L22.2435 27.3281H16.8058V18.0371H18.7795ZM25.6106 18.0371V27.3281H23.637V18.0371H25.6106ZM34.3235 18.0371L31.6517 27.3281H29.2484L26.4826 18.0371H28.5905L30.4836 25.6901L32.3096 18.0371H34.3235ZM40.7464 18.0371L40.5316 19.4738H37.175V21.8905H40.102V23.3137H37.175V25.8781H40.7733V27.3281H35.2014V18.0371H40.7464ZM45.2754 23.6896H44.2684V27.3281H42.2947V18.0371H45.1948C46.439 18.0371 47.3744 18.2699 48.0009 18.7353C48.6275 19.1918 48.9408 19.8855 48.9408 20.8164C48.9408 21.425 48.7886 21.9263 48.4843 22.3201C48.1889 22.714 47.7279 23.0496 47.1014 23.3271L49.5047 27.3281H47.2625L45.2754 23.6896ZM44.2684 22.2933H45.3022C45.8303 22.2933 46.2286 22.1769 46.4972 21.9442C46.7657 21.7025 46.9 21.3266 46.9 20.8164C46.9 20.342 46.7567 19.9974 46.4703 19.7826C46.1928 19.5588 45.7542 19.4469 45.1545 19.4469H44.2684V22.2933ZM57.0366 18.0371L54.056 23.8239V27.3281H52.0823V23.8373L49.1017 18.0371H51.2633L53.1161 22.253L54.9555 18.0371H57.0366Z" fill="#1975FF"/>
</svg>
