<svg width="25" height="24" viewBox="0 0 25 24" fill="none" xmlns="http://www.w3.org/2000/svg">
<path d="M16.4566 16.1238C16.7702 15.8386 16.7819 15.3492 16.4821 15.0494L13.2327 11.8V6.75C13.2327 6.33579 12.8969 6 12.4827 6C12.0685 6 11.7327 6.33579 11.7327 6.75V11.9858C11.7327 12.251 11.8381 12.5054 12.0256 12.6929L15.4321 16.0994C15.7124 16.3796 16.1633 16.3904 16.4566 16.1238Z" fill="#141C24"/>
<path d="M12.5327 22C11.166 22 9.87438 21.7375 8.65771 21.2125C7.44105 20.6875 6.37855 19.9708 5.47021 19.0625C4.56188 18.1542 3.84521 17.0917 3.32021 15.875C2.79521 14.6583 2.53271 13.3583 2.53271 11.975C2.53271 10.6083 2.79521 9.31667 3.32021 8.1C3.84521 6.88333 4.56188 5.825 5.47021 4.925C6.37855 4.025 7.44105 3.3125 8.65771 2.7875C9.87438 2.2625 11.1744 2 12.5577 2C13.9244 2 15.216 2.2625 16.4327 2.7875C17.6494 3.3125 18.7077 4.025 19.6077 4.925C20.5077 5.825 21.2202 6.88333 21.7452 8.1C22.2702 9.31667 22.5327 10.6167 22.5327 12C22.5327 13.3667 22.2702 14.6583 21.7452 15.875C21.2202 17.0917 20.5077 18.1542 19.6077 19.0625C18.7077 19.9708 17.6494 20.6875 16.4327 21.2125C15.216 21.7375 13.916 22 12.5327 22ZM12.5327 20.5C14.8994 20.5 16.9077 19.6708 18.5577 18.0125C20.2077 16.3542 21.0327 14.35 21.0327 12C21.0327 9.63333 20.2077 7.625 18.5577 5.975C16.9077 4.325 14.8994 3.5 12.5327 3.5C10.1827 3.5 8.17855 4.325 6.52022 5.975C4.86188 7.625 4.03271 9.63333 4.03271 12C4.03271 14.35 4.86188 16.3542 6.52022 18.0125C8.17855 19.6708 10.1827 20.5 12.5327 20.5Z" fill="#141C24"/>
</svg>
