<svg width="25" height="24" viewBox="0 0 25 24" fill="none" xmlns="http://www.w3.org/2000/svg">
<path fill-rule="evenodd" clip-rule="evenodd" d="M16.5327 8C16.5327 10.2091 14.7419 12 12.5327 12C10.3236 12 8.53271 10.2091 8.53271 8C8.53271 5.79086 10.3236 4 12.5327 4C14.7419 4 16.5327 5.79086 16.5327 8ZM15.0327 8C15.0327 9.38071 13.9134 10.5 12.5327 10.5C11.152 10.5 10.0327 9.38071 10.0327 8C10.0327 6.61929 11.152 5.5 12.5327 5.5C13.9134 5.5 15.0327 6.61929 15.0327 8Z" fill="#141C24"/>
<path fill-rule="evenodd" clip-rule="evenodd" d="M4.53271 17.772V20H20.5327V17.772C20.5327 16.1046 19.4984 14.6121 17.9372 14.0267L17.7996 13.9751C14.4038 12.7017 10.6616 12.7017 7.26586 13.9751L7.12822 14.0267C5.56701 14.6121 4.53271 16.1046 4.53271 17.772ZM7.79255 15.3796C10.8487 14.2335 14.2167 14.2335 17.2729 15.3796L17.4105 15.4312C18.3863 15.7971 19.0327 16.7299 19.0327 17.772V18.5H6.03271V17.772C6.03271 16.7299 6.67915 15.7971 7.65491 15.4312L7.79255 15.3796Z" fill="#141C24"/>
</svg>
